<svg width="22" height="22" viewBox="0 0 22 22" fill="none" xmlns="http://www.w3.org/2000/svg">
<path d="M9.98633 14H11.9863C12.5168 14 13.0255 13.7893 13.4005 13.4142C13.7756 13.0391 13.9863 12.5304 13.9863 12C13.9863 11.4696 13.7756 10.9609 13.4005 10.5858C13.0255 10.2107 12.5168 10 11.9863 10H8.98633C8.38633 10 7.88633 10.2 7.58633 10.6L1.98633 16M5.98633 20L7.58633 18.6C7.88633 18.2 8.38633 18 8.98633 18H12.9863C14.0863 18 15.0863 17.6 15.7863 16.8L20.3863 12.4C20.7722 12.0353 20.9974 11.5323 21.0124 11.0016C21.0274 10.4708 20.831 9.95589 20.4663 9.57C20.1017 9.18411 19.5986 8.95889 19.0679 8.94389C18.5372 8.92888 18.0222 9.12533 17.6363 9.49L13.4363 13.39M0.986328 15L6.98633 21M17.8863 8C17.8863 9.60163 16.588 10.9 14.9863 10.9C13.3847 10.9 12.0863 9.60163 12.0863 8C12.0863 6.39837 13.3847 5.1 14.9863 5.1C16.588 5.1 17.8863 6.39837 17.8863 8ZM7.98633 4C7.98633 5.65685 6.64318 7 4.98633 7C3.32947 7 1.98633 5.65685 1.98633 4C1.98633 2.34315 3.32947 1 4.98633 1C6.64318 1 7.98633 2.34315 7.98633 4Z" stroke="white" stroke-linecap="round" stroke-linejoin="round"/>
</svg>
