<svg width="367" height="23" viewBox="0 0 367 23" fill="none" xmlns="http://www.w3.org/2000/svg">
<path d="M0.833333 19.5C0.833333 20.9728 2.02724 22.1667 3.5 22.1667C4.97276 22.1667 6.16667 20.9728 6.16667 19.5C6.16667 18.0272 4.97276 16.8333 3.5 16.8333C2.02724 16.8333 0.833333 18.0272 0.833333 19.5ZM363.5 19.5L366.387 14.5H360.613L363.5 19.5ZM3.5 19.5H4V9H3.5H3V19.5H3.5ZM11.5 1V1.5H355.5V1V0.5H11.5V1ZM363.5 9H363V15H363.5H364V9H363.5ZM355.5 1V1.5C359.642 1.5 363 4.85786 363 9H363.5H364C364 4.30558 360.194 0.5 355.5 0.5V1ZM3.5 9H4C4 4.85786 7.35786 1.5 11.5 1.5V1V0.5C6.80558 0.5 3 4.30558 3 9H3.5Z" fill="black"/>
</svg>
