<svg width="366" height="22" viewBox="0 0 366 22" fill="none" xmlns="http://www.w3.org/2000/svg">
<path d="M0.333333 3C0.333333 1.52724 1.52724 0.333334 3 0.333334C4.47276 0.333334 5.66667 1.52724 5.66667 3C5.66667 4.47276 4.47276 5.66667 3 5.66667C1.52724 5.66667 0.333333 4.47276 0.333333 3ZM363 3L365.887 8H360.113L363 3ZM3 3H3.5V13.5H3H2.5V3H3ZM11 21.5V21H355V21.5V22H11V21.5ZM363 13.5H362.5V7.5H363H363.5V13.5H363ZM355 21.5V21C359.142 21 362.5 17.6421 362.5 13.5H363H363.5C363.5 18.1944 359.694 22 355 22V21.5ZM3 13.5H3.5C3.5 17.6421 6.85786 21 11 21V21.5V22C6.30558 22 2.5 18.1944 2.5 13.5H3Z" fill="black"/>
</svg>
