<svg width="152" height="24" viewBox="0 0 152 24" fill="none" xmlns="http://www.w3.org/2000/svg">
<path d="M0.704 23.5V19.788L8.224 11.98C9.536 10.636 10.496 9.324 10.496 8.012C10.496 6.604 9.6 5.644 8.096 5.644C6.528 5.644 5.408 6.668 4.8 8.076L0.48 5.548C1.92 2.22 4.928 0.651999 8.032 0.651999C12.032 0.651999 15.616 3.276 15.616 7.788C15.616 10.476 14.176 12.78 12.128 14.828L8.416 18.572H15.936V23.5H0.704ZM27.4625 1.1C31.8785 1.1 35.3025 4.524 35.3025 8.78C35.3025 13.036 31.8785 16.46 27.4625 16.46H24.1025V23.5H18.9825V1.1H27.4625ZM27.4625 11.66C29.0305 11.66 30.1825 10.412 30.1825 8.78C30.1825 7.148 29.0305 5.9 27.4625 5.9H24.1025V11.66H27.4625ZM48.3893 23.948C41.9573 23.948 36.7413 18.892 36.7413 12.3C36.7413 5.708 41.9573 0.651999 48.3893 0.651999C54.8213 0.651999 60.0373 5.708 60.0373 12.3C60.0373 18.892 54.8213 23.948 48.3893 23.948ZM48.3893 18.956C52.0373 18.956 54.9173 16.3 54.9173 12.3C54.9173 8.3 52.0373 5.644 48.3893 5.644C44.7413 5.644 41.8613 8.3 41.8613 12.3C41.8613 16.3 44.7413 18.956 48.3893 18.956ZM74.696 23.5L70.472 16.14H68.04V23.5H62.92V1.1H71.88C76.136 1.1 79.56 4.524 79.56 8.78C79.56 11.532 77.896 14.028 75.432 15.276L80.2 23.5H74.696ZM68.04 5.9V11.66H71.88C73.288 11.66 74.44 10.412 74.44 8.78C74.44 7.148 73.288 5.9 71.88 5.9H68.04ZM92.983 23.948C86.551 23.948 81.335 18.892 81.335 12.3C81.335 5.708 86.551 0.651999 92.983 0.651999C99.415 0.651999 104.631 5.708 104.631 12.3C104.631 18.892 99.415 23.948 92.983 23.948ZM92.983 18.956C96.631 18.956 99.511 16.3 99.511 12.3C99.511 8.3 96.631 5.644 92.983 5.644C89.335 5.644 86.455 8.3 86.455 12.3C86.455 16.3 89.335 18.956 92.983 18.956ZM129.69 11.02V12.94C129.69 19.788 124.922 23.948 118.65 23.948C111.61 23.948 106.554 18.764 106.554 12.332C106.554 5.836 111.706 0.651999 118.298 0.651999C122.586 0.651999 126.202 2.764 128.09 5.772L123.738 8.268C122.81 6.796 120.794 5.644 118.266 5.644C114.49 5.644 111.674 8.428 111.674 12.364C111.674 16.172 114.362 18.956 118.714 18.956C121.69 18.956 123.642 17.644 124.442 15.5H118.458V11.02H129.69ZM146.004 23.5L144.884 19.98H136.564L135.444 23.5H129.844L137.46 1.1H143.988L151.604 23.5H146.004ZM138.1 15.18H143.348L140.724 6.956L138.1 15.18Z" fill="black"/>
</svg>
