<svg width="152" height="24" viewBox="0 0 152 24" fill="none" xmlns="http://www.w3.org/2000/svg">
<path d="M0.704 23V19.288L8.224 11.48C9.536 10.136 10.496 8.824 10.496 7.512C10.496 6.104 9.6 5.144 8.096 5.144C6.528 5.144 5.408 6.168 4.8 7.576L0.48 5.048C1.92 1.72 4.928 0.151999 8.032 0.151999C12.032 0.151999 15.616 2.776 15.616 7.288C15.616 9.976 14.176 12.28 12.128 14.328L8.416 18.072H15.936V23H0.704ZM27.4625 0.599998C31.8785 0.599998 35.3025 4.024 35.3025 8.28C35.3025 12.536 31.8785 15.96 27.4625 15.96H24.1025V23H18.9825V0.599998H27.4625ZM27.4625 11.16C29.0305 11.16 30.1825 9.912 30.1825 8.28C30.1825 6.648 29.0305 5.4 27.4625 5.4H24.1025V11.16H27.4625ZM48.3893 23.448C41.9573 23.448 36.7413 18.392 36.7413 11.8C36.7413 5.208 41.9573 0.151999 48.3893 0.151999C54.8213 0.151999 60.0373 5.208 60.0373 11.8C60.0373 18.392 54.8213 23.448 48.3893 23.448ZM48.3893 18.456C52.0373 18.456 54.9173 15.8 54.9173 11.8C54.9173 7.8 52.0373 5.144 48.3893 5.144C44.7413 5.144 41.8613 7.8 41.8613 11.8C41.8613 15.8 44.7413 18.456 48.3893 18.456ZM74.696 23L70.472 15.64H68.04V23H62.92V0.599998H71.88C76.136 0.599998 79.56 4.024 79.56 8.28C79.56 11.032 77.896 13.528 75.432 14.776L80.2 23H74.696ZM68.04 5.4V11.16H71.88C73.288 11.16 74.44 9.912 74.44 8.28C74.44 6.648 73.288 5.4 71.88 5.4H68.04ZM92.983 23.448C86.551 23.448 81.335 18.392 81.335 11.8C81.335 5.208 86.551 0.151999 92.983 0.151999C99.415 0.151999 104.631 5.208 104.631 11.8C104.631 18.392 99.415 23.448 92.983 23.448ZM92.983 18.456C96.631 18.456 99.511 15.8 99.511 11.8C99.511 7.8 96.631 5.144 92.983 5.144C89.335 5.144 86.455 7.8 86.455 11.8C86.455 15.8 89.335 18.456 92.983 18.456ZM129.69 10.52V12.44C129.69 19.288 124.922 23.448 118.65 23.448C111.61 23.448 106.554 18.264 106.554 11.832C106.554 5.336 111.706 0.151999 118.298 0.151999C122.586 0.151999 126.202 2.264 128.09 5.272L123.738 7.768C122.81 6.296 120.794 5.144 118.266 5.144C114.49 5.144 111.674 7.928 111.674 11.864C111.674 15.672 114.362 18.456 118.714 18.456C121.69 18.456 123.642 17.144 124.442 15H118.458V10.52H129.69ZM146.004 23L144.884 19.48H136.564L135.444 23H129.844L137.46 0.599998H143.988L151.604 23H146.004ZM138.1 14.68H143.348L140.724 6.456L138.1 14.68Z" fill="white"/>
</svg>
