<svg width="152" height="30" fill="none" xmlns="http://www.w3.org/2000/svg"><g clip-path="url(#clip0_2286_5247)"><g clip-path="url(#clip1_2286_5247)" fill-rule="evenodd" clip-rule="evenodd" fill="#fff"><path d="M112.529 1.604c-1.218.919-1.495 1.836-1.699 3.263-.204 1.297-.156 2.723-.108 4.11.021.61.041 1.212.04 1.792-.002.83-.03 1.684-.058 2.549-.067 2.07-.136 4.194.143 6.156.156 1.101.419 2.121 1.081 3.043 1.431 1.994 3.781 2.612 6.103 2.937.22.031.449.065.685.1 2.555.374 5.962.874 8.009-.687 1.03-.786 1.649-1.79 1.796-3.074l.144-6.875-9.468-.721c-.006.344-.056.69.113 1.003l3.811.308c.004 1.159.008 2.317.007 3.475 0 .157.005.32.01.485.013.437.027.892-.05 1.296-.043.231-.15.376-.312.542-.388.397-.981.549-1.518.575-1.196.056-3.044-.057-3.933-.938a2.386 2.386 0 01-.631-1.245c-.186-1.214-.141-2.609-.098-3.923.014-.432.028-.856.033-1.26.037-2.871.073-5.789-.049-8.656l.018-.05c.131-.344.277-.731.517-1.013.406-.478 1.289-.567 1.879-.603.85-.051 2.56-.067 3.194.555.546.536.558 1.536.567 2.318.001.118.002.231.006.337l5.458.06.012-.152c.128-1.665.271-3.521-.802-4.93-.982-1.29-2.609-1.827-4.156-2.058-1.274-.19-2.609-.178-3.896-.166h-.112c-2.245.021-4.877.045-6.736 1.447zM136.283.206l6.657-.062 4.53 15.746L151.508 30l-10.219-1.874c.037-.25.055-.612.075-1.01.044-.854.096-1.873.356-2.3.394-.037.797.028 1.191.093l.257.041-1.279-4.404-5.997-1.25-1.392 4.602 1.378-.122-.082 3.633-7.489-.976a21.793 21.793 0 01.168-3.128l1.617.388 2.114-8.582L136.283.206zm2.33 8.65l-1.726 6.385-.135.577c.235.228.567.268.897.309.09.011.18.022.267.037 1.039.176 2.067.382 3.095.608l-.464-1.205-1.934-6.71zM15.648.535L.508.464c.894 1.673 2.295 2.79 3.687 3.9C5.792 5.635 7.378 6.9 8.172 8.984c1.347-1.022 2.184-1.926 2.46-3.635 1.166-.016 2.332-.031 3.499-.04.92-.006 2.181-.161 2.91.501.619.562.692 1.532.684 2.308-.01.935-.144 1.903-.846 2.595-.691.682-1.552.865-2.426 1.05-.428.09-.86.182-1.277.334-1.992.722-3.823 2.697-5.021 4.38l-.05.045c-1.906 2.18-3.605 5.236-4.066 8.091-.227 1.408-.181 2.81-.134 4.227l.007.212 19.486-2.486c.019-2.353.306-4.485.744-6.794-1.007.706-1.999 1.53-3.124 2.042-1.1.502-2.42.693-3.657.872-.265.038-.525.076-.778.116-.671.106-1.343.206-2.014.306-1.769.263-3.536.527-5.29.895l.01-.199c.094-1.794.45-3.841 1.964-5.03.615-.482 1.568-.717 2.418-.926.244-.06.479-.118.695-.179 2.051-.578 3.995-1.352 5.607-2.766 1.915-1.428 3.635-3.756 3.941-6.168.231-1.815-.086-3.662-1.244-5.137C21.055 1.543 18.15.773 15.648.535zm57.333-.39l4.533.003c.467 0 .944-.007 1.425-.015h.003c1.906-.03 3.89-.062 5.689.414.858.227 1.603.619 2.228 1.247.585.588.909 1.25 1.15 2.028l.059.178c.378 1.23.627 7.411.023 8.5l-.219.34c-1.055.995-1.606 1.073-3.008 1.136.16.465.316.952.476 1.452l.002.006v.002c.663 2.062 1.389 4.32 2.606 5.954.472.634 1.084 1.161 1.686 1.68l.272.234-7.749-.25-3.25-9.028-2.523-.092.016 7.25c.064.794.544 1.195 1.096 1.658.076.063.153.128.23.195l-8.49.124c.484-.971.998-2.007 1.177-3.084.097-.586.083-1.212.07-1.821a31.697 31.697 0 01-.01-.553 204.98 204.98 0 00-.011-1.36c-.008-.685-.018-1.369-.029-2.053l-.011-.778c-.046-3.23-.014-6.494.06-9.725-.156-1.375-.699-2.448-1.383-3.642h3.882zm4.28 3.96c-.284.016-.541.031-.755.038l.03 6.89c.347-.002.743.01 1.164.022 1.466.042 3.233.093 4.307-.411.64-1.007.584-3.466.337-4.634-.13-.61-.391-1.156-.924-1.52-.853-.58-2.811-.465-4.16-.386z"/><path d="M34.561.283h-.001c-1.96.01-3.926.02-5.878.132l.143.214c.542.808 1.069 1.595 1.319 2.552.295 1.13.234 2.452.175 3.709-.022.474-.044.94-.046 1.381-.003.679.005 1.362.013 2.046v.006c.017 1.432.033 2.872-.049 4.288-.373-.082-.803-.01-1.199.057l-.012.002c-.095.016-.189.032-.279.045-1.074.154-2.169.34-3.209.657-1.843.562-3.161 1.74-4.052 3.403 1.08-.223 2.139-.494 3.194-.763h.001c1.834-.47 3.66-.936 5.58-1.152l.16 6.71-1.993 2.441 9.484-1.002c-.75-.662-1.445-1.324-1.917-2.21l.024-6.075 7.136-.575c2.044-.29 3.232-1.093 4.435-2.706l.09-.203h.001c.164-.363.338-.748.397-1.132.115-.75.09-1.561.068-2.347a38.205 38.205 0 01-.018-.794c-.003-.359.005-.745.014-1.145.033-1.484.07-3.166-.454-4.4-.516-1.214-1.413-2.157-2.665-2.64-1.959-.754-4.556-.654-6.869-.564h-.008c-.621.024-1.222.047-1.784.053-.6.006-1.2.009-1.8.012zm2.663 3.99c-.349.025-.665.048-.924.057-.29.504-.207 4.969-.164 7.298.01.549.018.98.018 1.211.429-.028.868-.048 1.313-.069 1.374-.063 2.796-.128 4.08-.435.77-1.108.74-2.262.71-3.504a24.67 24.67 0 01-.013-.726c0-.185.003-.376.006-.569.01-.558.02-1.135-.06-1.665a1.845 1.845 0 00-.819-1.275c-.828-.56-2.748-.423-4.148-.323zm12.5 8.841c.01-1.927.02-3.854.034-5.781.002-.24-.001-.487-.004-.737v-.008c-.012-.943-.025-1.938.211-2.814.166-.615.523-1.202.95-1.674C52.17.717 54.206.294 56.009.22c1.15-.047 2.307-.047 3.46-.047h.454c2.289-.002 4.972-.005 6.72 1.707 1.599 1.565 1.574 4.05 1.552 6.177v.014c-.002.177-.004.352-.004.523-.007 1.453-.018 2.907-.03 4.36a1104.89 1104.89 0 01-.009 3.948c0 .196 0 .394.002.592v.002c.012 1.677.024 3.398-1.324 4.664-.508.477-1.222.81-1.892.99-1.402.375-3.002.402-4.517.428-.393.007-.781.014-1.159.027-.405.013-.813.035-1.222.056h-.015c-1.005.053-2.016.106-3.012.045-1.689-.103-3.36-.573-4.48-1.915-.884-1.058-.857-2.676-.833-4.065.004-.233.008-.46.007-.676a273.2 273.2 0 01.017-3.936zm6.098-5.288c-.008 1.663-.01 3.325-.013 4.988a906.994 906.994 0 00-.013 4.487c0 .124-.004.254-.008.389-.019.693-.041 1.492.425 1.997.346.373.733.513 1.237.517.153.002.323.006.507.01 1.238.03 3.062.075 3.799-.649.196-.193.372-.402.43-.675.113-.535.105-1.132.096-1.7a27.03 27.03 0 01-.004-.47c.003-1.217.002-2.434 0-3.65.005-1.437.01-2.874.009-4.31 0-.211.005-.433.011-.662.028-1.115.06-2.39-.551-3.285-.325-.474-.914-.64-1.457-.73-1.013-.17-3.097-.197-3.91.505-.213.184-.372.513-.448.78-.157.553-.138 1.235-.12 1.864.005.206.01.406.01.594zM90.453 9.71V9.7c.003-.434.007-.868.008-1.301.002-.325-.009-.683-.02-1.059-.047-1.644-.105-3.64.763-4.859.951-1.334 2.421-1.85 3.99-2.124 2.716-.475 6.248-.506 8.94.079.884.192 1.887.5 2.624 1.036 1.236.899 1.856 2.147 2.048 3.624.13.83.118 1.687.105 2.534-.003.238-.007.475-.007.71-.002 1.397-.007 2.793-.012 4.188l-.003 1.122c-.003.633.016 1.292.034 1.959v.002c.042 1.519.085 3.084-.107 4.51-.098.735-.316 1.432-.779 2.03-.955 1.232-2.485 1.71-3.996 1.842-.935.08-1.881.027-2.821-.027h-.01c-.254-.015-.508-.03-.76-.041l-.3-.014c-2.755-.126-5.523-.252-7.74-2.106-1.165-.974-1.73-2.09-1.827-3.595l-.128-5.002c-.02-1.165-.01-2.333-.002-3.5zm5.938-1.517c-.004 1.766 0 3.53.005 5.296-.003.305-.02.654-.039 1.028-.081 1.636-.187 3.755.821 4.803.808.84 2.423.937 3.541.917.59-.01 1.232-.097 1.671-.534.788-.785.665-3.315.584-4.975-.018-.381-.035-.717-.037-.975 0-1.776-.001-3.552-.008-5.328-.001-.216.004-.444.009-.678.018-.786.038-1.635-.169-2.34a1.693 1.693 0 00-.463-.745c-.624-.601-1.982-.629-2.822-.623-.872.007-2.008.09-2.634.764-.247.266-.364.575-.423.926-.09.54-.07 1.154-.052 1.743.008.248.016.49.016.721z"/></g></g><defs><clipPath id="clip0_2286_5247"><path fill="#fff" transform="translate(.508)" d="M0 0h151v30H0z"/></clipPath><clipPath id="clip1_2286_5247"><path fill="#fff" transform="translate(.508)" d="M0 0h151v30H0z"/></clipPath></defs></svg>