<svg width="149" height="30" fill="none" xmlns="http://www.w3.org/2000/svg"><g clip-path="url(#clip0_2320_205)" fill-rule="evenodd" clip-rule="evenodd" fill="#1E1E1E"><path d="M112.021 1.605c-1.219.918-1.495 1.836-1.7 3.262-.204 1.297-.155 2.723-.108 4.11.021.61.042 1.212.041 1.793-.002.829-.03 1.684-.058 2.548-.068 2.07-.137 4.195.143 6.156.156 1.102.419 2.122 1.08 3.044 1.431 1.993 3.782 2.611 6.104 2.937.219.03.448.064.685.099 2.555.375 5.962.875 8.009-.686 1.03-.786 1.649-1.79 1.796-3.074l.144-6.875-9.468-.722c-.007.344-.056.69.113 1.003l3.811.309c.004 1.158.007 2.316.007 3.475 0 .156.005.319.01.484.013.437.026.892-.05 1.296-.044.232-.151.376-.313.542-.387.397-.98.55-1.518.575-1.195.057-3.044-.056-3.933-.938a2.393 2.393 0 01-.631-1.244c-.185-1.214-.14-2.61-.097-3.924.014-.432.027-.855.033-1.26.036-2.87.073-5.788-.05-8.656l.019-.05c.13-.344.277-.731.516-1.013.406-.478 1.289-.566 1.88-.602.849-.052 2.56-.068 3.194.554.546.536.557 1.536.566 2.319.002.117.003.23.006.336l5.459.06.011-.152c.128-1.665.271-3.521-.801-4.93-.983-1.29-2.609-1.826-4.157-2.058-1.273-.19-2.608-.178-3.896-.166h-.024l-.088.001c-2.244.02-4.876.045-6.735 1.447zm23.754-1.4l6.656-.061 4.531 15.745L151 30l-10.219-1.873c.036-.25.055-.612.075-1.01.044-.854.096-1.873.356-2.3.394-.038.796.028 1.19.093.087.014.172.028.258.04l-1.28-4.403-5.996-1.25-1.393 4.602 1.379-.122-.082 3.633-7.489-.977a21.793 21.793 0 01.168-3.127l1.617.387 2.114-8.582L135.775.206zm2.33 8.65l-1.726 6.386-.135.577c.235.227.566.268.896.309.09.01.18.022.268.037 1.039.176 2.066.382 3.095.608l-.464-1.206-1.934-6.71zM15.14.535L0 .464c.894 1.673 2.295 2.79 3.687 3.9C5.284 5.637 6.87 6.9 7.664 8.986c1.347-1.023 2.184-1.927 2.46-3.636 1.166-.016 2.332-.031 3.498-.04.921-.006 2.182-.16 2.911.501.618.562.692 1.532.683 2.308-.01.935-.143 1.904-.845 2.595-.691.682-1.552.865-2.426 1.05-.429.091-.86.183-1.278.334-1.992.722-3.822 2.697-5.02 4.38l-.05.045C5.69 18.703 3.99 21.76 3.53 24.614c-.228 1.408-.181 2.81-.135 4.227l.007.212 19.486-2.486c.02-2.353.307-4.485.745-6.793-1.007.705-1.999 1.528-3.124 2.041-1.1.502-2.421.693-3.658.872-.264.038-.524.076-.777.116-.671.106-1.343.206-2.014.306-1.77.264-3.536.527-5.29.895l.01-.199c.094-1.794.449-3.84 1.964-5.03.614-.482 1.568-.716 2.418-.926.243-.06.478-.117.694-.178 2.052-.578 3.996-1.352 5.608-2.767 1.915-1.428 3.634-3.756 3.941-6.168.23-1.815-.086-3.662-1.244-5.137-1.615-2.056-4.52-2.825-7.023-3.064zm57.333-.39l4.533.003c.467 0 .943-.007 1.424-.015h.003c1.907-.03 3.891-.062 5.69.414.858.227 1.603.619 2.228 1.247.584.588.909 1.251 1.15 2.028L87.56 4c.378 1.23.627 7.411.023 8.5l-.219.34c-1.055.996-1.606 1.073-3.008 1.136.159.465.316.952.476 1.452l.002.006v.002c.663 2.062 1.388 4.32 2.605 5.954.472.634 1.085 1.161 1.687 1.68l.272.234-7.75-.25-3.25-9.028-2.522-.092.015 7.25c.065.794.545 1.195 1.096 1.658.077.063.154.128.232.195l-8.49.124c.483-.971.997-2.007 1.176-3.084.097-.586.083-1.212.07-1.821a31.68 31.68 0 01-.01-.553c-.002-.454-.007-.907-.012-1.36-.007-.685-.018-1.369-.028-2.053l-.011-.778c-.046-3.23-.014-6.494.06-9.725-.157-1.375-.7-2.448-1.384-3.642h3.883zm4.28 3.96c-.285.016-.541.031-.755.038l.029 6.89c.348-.002.744.01 1.165.022 1.466.042 3.233.093 4.307-.411.64-1.007.584-3.466.336-4.634-.129-.61-.39-1.156-.924-1.52-.852-.58-2.81-.465-4.159-.386z"/><path d="M34.053.282h-.001c-1.96.01-3.926.02-5.878.132l.143.214c.541.809 1.069 1.596 1.319 2.552.295 1.13.233 2.453.175 3.71-.023.474-.044.94-.046 1.381-.003.678.005 1.361.013 2.046v.006c.016 1.432.033 2.871-.049 4.287-.373-.08-.803-.009-1.2.058l-.011.002c-.096.016-.189.032-.28.045-1.073.154-2.168.34-3.208.657-1.844.562-3.162 1.74-4.052 3.403a71.106 71.106 0 003.193-.764h.002c1.834-.469 3.66-.935 5.58-1.151l.16 6.71-1.993 2.44 9.484-1.002c-.75-.66-1.445-1.324-1.917-2.209l.023-6.076 7.136-.574c2.045-.29 3.232-1.094 4.435-2.706l.092-.204c.164-.363.338-.747.397-1.13.114-.752.09-1.562.068-2.349a38.207 38.207 0 01-.018-.793c-.003-.36.005-.745.014-1.146.032-1.483.07-3.165-.455-4.399-.516-1.214-1.413-2.158-2.664-2.64-1.959-.755-4.557-.654-6.87-.565h-.007c-.621.025-1.222.048-1.784.053-.6.006-1.2.01-1.8.012zm2.662 3.99a27.11 27.11 0 01-.924.057c-.29.504-.207 4.97-.163 7.299.01.549.018.979.018 1.21.428-.027.868-.047 1.313-.068 1.373-.063 2.795-.128 4.08-.435.77-1.108.74-2.262.709-3.505a34.2 34.2 0 01-.013-.725c0-.186.003-.376.007-.569.01-.558.02-1.135-.06-1.665a1.845 1.845 0 00-.82-1.275c-.827-.561-2.747-.424-4.147-.323zm12.501 8.843c.01-1.928.02-3.855.034-5.782.002-.24-.002-.486-.005-.737V6.59c-.012-.943-.024-1.939.212-2.815.166-.615.523-1.202.95-1.674C51.66.717 53.697.294 55.5.22c1.15-.047 2.307-.047 3.46-.047h.453c2.29-.002 4.973-.004 6.721 1.707 1.599 1.565 1.573 4.051 1.552 6.177v.014l-.005.524a906.175 906.175 0 01-.03 4.36 1104.89 1104.89 0 01-.008 3.947c-.001.197 0 .394.002.593v.001c.011 1.678.024 3.398-1.324 4.664-.508.477-1.222.811-1.892.99-1.403.376-3.003.403-4.517.429-.394.007-.782.013-1.159.026-.406.014-.814.035-1.223.056h-.008l-.005.001c-1.005.053-2.016.105-3.012.044-1.689-.103-3.36-.572-4.481-1.915-.883-1.057-.856-2.675-.833-4.065.004-.233.008-.46.008-.676a273.2 273.2 0 01.017-3.935zm6.097-5.289c-.007 1.663-.01 3.326-.012 4.988a906.957 906.957 0 00-.013 4.488c0 .123-.004.254-.008.389-.02.693-.042 1.491.425 1.996.345.374.732.513 1.237.518.152.001.323.005.506.01 1.239.03 3.063.075 3.8-.65.196-.192.372-.401.43-.674.113-.535.104-1.133.096-1.7a27.01 27.01 0 01-.005-.471c.004-1.217.002-2.433 0-3.65.006-1.437.01-2.873.01-4.31 0-.21.005-.433.01-.662.029-1.115.061-2.39-.55-3.284-.326-.475-.915-.64-1.458-.73-1.012-.17-3.096-.197-3.91.505-.213.183-.372.512-.447.779-.157.554-.139 1.235-.121 1.865.006.205.011.405.01.593zM89.945 9.71V9.7l.008-1.3c.001-.326-.009-.684-.02-1.06-.048-1.644-.105-3.64.763-4.859.951-1.334 2.42-1.85 3.99-2.124 2.715-.475 6.248-.506 8.94.079.884.192 1.887.5 2.624 1.036 1.235.899 1.856 2.147 2.047 3.624.131.83.118 1.687.106 2.534-.004.238-.007.475-.007.71-.002 1.397-.007 2.793-.012 4.188l-.004 1.122c-.002.633.016 1.292.035 1.959v.002c.042 1.519.085 3.084-.107 4.51-.099.735-.317 1.432-.779 2.03-.955 1.232-2.485 1.71-3.996 1.842-.935.08-1.881.027-2.822-.027h-.01c-.254-.015-.507-.03-.76-.041l-.299-.014c-2.755-.126-5.523-.252-7.74-2.106-1.165-.974-1.73-2.09-1.827-3.595l-.129-5.002c-.019-1.165-.01-2.333-.001-3.5zm5.937-1.517c-.004 1.766 0 3.53.006 5.296-.003.305-.02.654-.04 1.028-.08 1.636-.186 3.755.822 4.803.807.84 2.423.937 3.541.917.59-.01 1.232-.097 1.671-.534.787-.784.664-3.315.584-4.975a28.075 28.075 0 01-.038-.975c0-1.776-.001-3.552-.008-5.328-.001-.216.005-.444.01-.678.018-.786.038-1.635-.169-2.34a1.686 1.686 0 00-.464-.745c-.624-.601-1.981-.629-2.821-.623-.873.007-2.009.09-2.634.764-.247.266-.365.575-.424.926-.09.54-.07 1.154-.05 1.743.007.248.015.49.014.721z"/></g><defs><clipPath id="clip0_2320_205"><path fill="#fff" d="M0 0h151v30H0z"/></clipPath></defs></svg>