<svg xmlns="http://www.w3.org/2000/svg" width="32" height="32" fill="none"><path d="M16 0C7.163 0 0 7.163 0 16s7.163 16 16 16 16-7.163 16-16S24.837 0 16 0z" fill="#40B3E0"/><path d="M23.785 9.204l-2.858 14.408s-.4 1-1.498.52l-6.595-5.056-2.398-1.16-4.037-1.358s-.62-.22-.68-.7c-.06-.48.7-.739.7-.739l16.047-6.295s1.32-.58 1.32.38z" fill="#fff"/><path d="M12.327 23.45s-.192-.018-.432-.777c-.24-.76-1.459-4.756-1.459-4.756l9.692-6.155s.56-.34.54 0c0 0 .1.06-.2.34-.3.28-7.614 6.854-7.614 6.854" fill="#D2E5F1"/><path d="M15.363 21.014l-2.609 2.379s-.204.154-.427.057l.5-4.417" fill="#B5CFE4"/></svg>