<svg width="32" height="32" fill="none" xmlns="http://www.w3.org/2000/svg"><path fill="#fff" d="M4.571 6.857h22.857v19.429H4.571z"/><g clip-path="url(#clip0_2286_5292)"><path fill-rule="evenodd" clip-rule="evenodd" d="M15.995 0C7.175 0 0 7.177 0 16c0 3.499 1.128 6.744 3.047 9.378l-1.994 5.945 6.15-1.966A15.873 15.873 0 0016.005 32C24.825 32 32 24.823 32 16S24.825 0 16.005 0h-.01zM11.53 8.127c-.31-.743-.546-.771-1.016-.79a9.035 9.035 0 00-.536-.019c-.611 0-1.25.179-1.636.574-.47.48-1.636 1.599-1.636 3.894s1.673 4.515 1.899 4.826c.235.31 3.263 5.088 7.965 7.036 3.677 1.523 4.768 1.382 5.604 1.204 1.223-.264 2.756-1.167 3.141-2.258.386-1.091.386-2.023.273-2.22-.113-.198-.424-.31-.893-.546-.47-.235-2.756-1.364-3.188-1.514-.424-.16-.828-.103-1.147.348-.452.63-.894 1.27-1.251 1.656-.282.3-.743.338-1.129.178-.517-.216-1.965-.724-3.752-2.314-1.382-1.232-2.322-2.765-2.595-3.226-.273-.47-.028-.743.188-.997.235-.291.46-.498.696-.771.235-.273.367-.414.517-.734.16-.31.047-.63-.066-.865-.113-.236-1.053-2.53-1.438-3.462z" fill="#67C15E"/></g><defs><clipPath id="clip0_2286_5292"><path fill="#fff" d="M0 0h32v32H0z"/></clipPath></defs></svg>