<svg xmlns="http://www.w3.org/2000/svg" width="28" height="28" fill="#E20D0D"><path d="M24.063 5.25v5.25a.438.438 0 01-.438.438h-5.25a.438.438 0 010-.876h4.193l-2.346-2.347A9.187 9.187 0 007.306 7.64a.438.438 0 01-.612-.626 10.063 10.063 0 0114.146.083l2.348 2.346V5.25a.438.438 0 01.875 0zm-3.37 15.11a9.126 9.126 0 01-6.417 2.615h-.052a9.135 9.135 0 01-6.446-2.69l-2.346-2.348h4.193a.438.438 0 000-.875h-5.25a.438.438 0 00-.438.438v5.25a.437.437 0 10.876 0v-4.193l2.347 2.346a10 10 0 007.059 2.947h.056a10.003 10.003 0 007.03-2.864.44.44 0 00.007-.62.438.438 0 00-.62-.006h.002z"/></svg>