<svg xmlns="http://www.w3.org/2000/svg" width="28" height="28" fill="#E20D0D"><path d="M24.255 7.62L14.63 2.35a1.313 1.313 0 00-1.26 0L3.745 7.62a1.312 1.312 0 00-.683 1.15v10.46a1.312 1.312 0 00.683 1.15l9.625 5.27a1.307 1.307 0 001.26 0l9.625-5.27a1.312 1.312 0 00.683-1.15V8.77a1.313 1.313 0 00-.683-1.15zM13.79 3.116a.431.431 0 01.42 0l9.488 5.196-4.175 2.284a.438.438 0 00-.063-.043l-9.625-5.27 3.955-2.167zm.21 10.5L4.302 8.312l4.619-2.53 9.698 5.31L14 13.617zM4.165 19.61a.437.437 0 01-.228-.383V9.11l9.626 5.267v10.381l-9.398-5.147zm19.67 0l-9.398 5.14V14.378l4.376-2.394v4.642a.438.438 0 00.875 0v-5.12l4.375-2.395v10.12a.438.438 0 01-.228.383v-.002z"/></svg>