<svg xmlns="http://www.w3.org/2000/svg" width="28" height="28" fill="#E20D0D"><path d="M26.25 12.688h-3.318l-4.866-4.866a1.301 1.301 0 00-.928-.385H4.843a1.312 1.312 0 00-1.094.585l-3.238 4.86a.437.437 0 00-.074.243v5.25a1.313 1.313 0 001.313 1.313h2.22a3.063 3.063 0 006.06 0h7.94a3.063 3.063 0 006.06 0h2.22a1.313 1.313 0 001.313-1.313V14a1.313 1.313 0 00-1.313-1.313zM4.484 8.508a.437.437 0 01.36-.195h12.294c.116 0 .227.046.308.127l4.247 4.248H1.692l2.792-4.18zM7 21.437a2.187 2.187 0 110-4.375 2.187 2.187 0 010 4.375zm14 0a2.187 2.187 0 110-4.375 2.187 2.187 0 010 4.375zm5.688-3.063a.438.438 0 01-.438.438h-2.22a3.063 3.063 0 00-6.06 0h-7.94a3.063 3.063 0 00-6.06 0H1.75a.438.438 0 01-.438-.438v-4.813H26.25a.438.438 0 01.438.438v4.375z"/></svg>