<svg width="18"
     height="18"
     viewBox="0 0 18 18"
     fill="none"
     xmlns="http://www.w3.org/2000/svg">
  <path fill-rule="evenodd"
        clip-rule="evenodd"
        d="M7.88 1.13103C8.01629 0.974209 8.22792 0.905289 8.43042 0.951779C11.1371 1.57317 12.5052 4.53913 12.1834 7.19272C12.0583 8.22426 11.7494 9.03295 11.2944 9.67636C11.2916 9.68029 11.2888 9.68422 11.286 9.68813C11.3894 9.63733 11.4847 9.58252 11.5739 9.52462C12.0179 9.23649 12.3437 8.85622 12.7679 8.36108C12.8192 8.30124 12.8719 8.23971 12.9265 8.17647C13.049 8.03435 13.2344 7.96271 13.4207 7.98547C13.607 8.00823 13.7696 8.12239 13.8544 8.28984C14.2275 9.02724 14.4375 9.8609 14.4375 10.742C14.4375 13.745 12.003 16.1795 9 16.1795C5.99695 16.1795 3.5625 13.745 3.5625 10.742C3.5625 8.83919 4.54028 7.16513 6.01824 6.19429L6.0689 6.14324C6.09493 6.11701 6.12348 6.0934 6.15414 6.07277C6.80354 5.6358 7.26984 5.27839 7.58378 4.85807C7.88035 4.46101 8.0625 3.97665 8.0625 3.24198C8.0625 2.69802 7.96206 2.17884 7.77922 1.70106C7.70496 1.50702 7.74371 1.28784 7.88 1.13103ZM9.12841 2.43811C9.16735 2.70059 9.1875 2.96904 9.1875 3.24198C9.1875 4.19329 8.94172 4.91996 8.48512 5.53129C8.0563 6.10541 7.46271 6.54635 6.82849 6.97492L6.77427 7.02956C6.74522 7.05884 6.71303 7.08483 6.67829 7.10707C5.47986 7.87434 4.6875 9.21581 4.6875 10.742C4.6875 13.1237 6.61827 15.0545 9 15.0545C11.3817 15.0545 13.3125 13.1237 13.3125 10.742C13.3125 10.3521 13.2609 9.9748 13.1642 9.61624C12.8791 9.92502 12.5643 10.223 12.1864 10.4683C11.4939 10.9177 10.6274 11.1743 9.375 11.1743C9.11831 11.1743 8.89418 11.0005 8.83023 10.7519C8.76629 10.5033 8.87875 10.2429 9.10358 10.1191C9.61269 9.8386 10.0442 9.49572 10.3758 9.02681C10.7068 8.55886 10.9603 7.93406 11.0666 7.05731C11.2967 5.15925 10.5112 3.2858 9.12841 2.43811Z"
        fill="white" />
</svg>