<svg xmlns="http://www.w3.org/2000/svg" width="28" height="28" fill="#E20D0D"><path d="M26.25 23.188h-2.188V10.5a1.313 1.313 0 00-1.312-1.313h-7.438V3.5a1.312 1.312 0 00-2.04-1.094L4.522 8.24a1.313 1.313 0 00-.585 1.094v13.854H1.75a.438.438 0 000 .875h24.5a.438.438 0 000-.875zm-3.5-13.125a.438.438 0 01.438.437v12.688h-7.875V10.063h7.437zM4.812 9.334a.437.437 0 01.195-.365l8.75-5.833a.438.438 0 01.68.364v19.688H4.813V9.334zm7 2.916V14a.438.438 0 01-.874 0v-1.75a.438.438 0 01.874 0zm-3.5 0V14a.438.438 0 01-.874 0v-1.75a.438.438 0 01.875 0zm0 6.125v1.75a.438.438 0 01-.874 0v-1.75a.438.438 0 01.875 0zm3.5 0v1.75a.438.438 0 01-.874 0v-1.75a.438.438 0 01.874 0z"/></svg>