<svg xmlns="http://www.w3.org/2000/svg" width="28" height="28" fill="#E20D0D"><path d="M22.75 4.813H5.25a1.313 1.313 0 00-1.313 1.312v6.125c0 5.596 2.705 8.982 4.974 10.84 2.45 2.003 4.872 2.679 4.974 2.707.075.02.155.02.23 0 .102-.028 2.524-.704 4.974-2.708 2.269-1.86 4.974-5.243 4.974-10.839V6.125a1.313 1.313 0 00-1.313-1.313zm.438 7.437c0 4.204-1.557 7.616-4.626 10.14A14.485 14.485 0 0114 24.918a14.463 14.463 0 01-4.562-2.528c-3.07-2.524-4.626-5.936-4.626-10.14V6.125a.437.437 0 01.438-.438h17.5a.438.438 0 01.438.438v6.125zm-4.503-1.184a.437.437 0 010 .618L12.56 17.81a.437.437 0 01-.62 0l-2.625-2.625a.438.438 0 11.62-.62l2.315 2.316 5.816-5.816a.437.437 0 01.619 0z"/></svg>