<svg xmlns="http://www.w3.org/2000/svg" width="28" height="28" fill="#E20D0D">
  <path
    d="M24.063 10.962V10.5a5.694 5.694 0 00-5.688-5.688H17.5a1.313 1.313 0 00-1.313 1.313v13.563h-2.625V7.874a.438.438 0 00-.437-.438H1.75A1.312 1.312 0 00.437 8.75v11.375a3.062 3.062 0 005.688 1.576 3.063 3.063 0 005.656-1.139h9.688a3.062 3.062 0 006.093-.437v-5.25a3.944 3.944 0 00-3.5-3.913zM1.313 8.75a.437.437 0 01.437-.438h10.938v11.376h-.907a3.063 3.063 0 00-5.656-1.14 3.062 3.062 0 00-4.813-.563V8.75zM3.5 22.313a2.187 2.187 0 110-4.375 2.187 2.187 0 010 4.375zm5.25 0a2.187 2.187 0 110-4.375 2.187 2.187 0 010 4.375zm15.75 0a2.187 2.187 0 110-4.375 2.187 2.187 0 010 4.375zm0-5.25a3.063 3.063 0 00-3.03 2.625h-4.407V6.124a.438.438 0 01.437-.438h.875a4.818 4.818 0 014.813 4.813v.875a.438.438 0 00.437.438 3.063 3.063 0 013.063 3.062v3.11a3.05 3.05 0 00-2.188-.922z" />
</svg>