<svg width="236" height="236" viewBox="0 0 236 236" fill="none" xmlns="http://www.w3.org/2000/svg">
<path d="M117.76 0C52.8282 0 0 52.8282 0 117.76C0 182.692 52.8282 235.52 117.76 235.52C182.697 235.52 235.52 182.692 235.52 117.76C235.52 52.8282 182.697 0 117.76 0ZM168.822 140.979C180.275 151.148 182.656 154.778 183.045 155.397C187.791 162.924 177.782 163.84 177.782 163.84H156.687C156.687 163.84 151.552 163.896 147.164 160.988C140.012 156.303 132.521 147.22 127.258 148.797C122.839 150.118 122.88 156.088 122.88 161.193C122.88 163.021 121.308 163.84 117.76 163.84C114.212 163.84 112.737 163.84 111.165 163.84C99.6096 163.84 87.0707 159.949 74.5626 146.877C56.8678 128.399 41.3491 91.177 41.3491 91.177C41.3491 91.177 40.4326 89.303 41.431 88.1613C42.5626 86.8813 45.6397 87.0451 45.6397 87.0451L66.0941 87.04C66.0941 87.04 68.0192 87.4035 69.4016 88.3763C70.5434 89.175 71.1782 90.7008 71.1782 90.7008C71.1782 90.7008 74.6138 102.047 78.9914 109.281C87.5418 123.402 91.52 123.761 94.423 122.24C98.6624 120.038 97.28 105.027 97.28 105.027C97.28 105.027 97.4694 98.5805 95.2576 95.7082C93.5526 93.4861 90.2912 92.3034 88.8678 92.119C87.7158 91.9706 89.641 89.9533 92.0934 88.8013C95.3702 87.3421 99.8298 86.9683 107.52 87.04C113.505 87.0963 115.231 87.4547 117.565 87.9923C124.626 89.6205 122.88 93.9162 122.88 109C122.88 113.833 122.214 120.627 125.86 122.88C127.432 123.853 132.818 125.041 142.403 109.476C146.954 102.093 150.574 89.8458 150.574 89.8458C150.574 89.8458 151.322 88.4992 152.484 87.8336C153.672 87.1526 153.636 87.168 155.264 87.168C156.892 87.168 173.22 87.04 176.804 87.04C180.383 87.04 183.741 86.999 184.32 89.0982C185.149 92.1139 181.678 102.446 172.882 113.659C158.428 132.06 156.826 130.34 168.822 140.979Z" fill="#007FFE"/>
<path d="M105.393 163.225C92.781 161.585 81.1257 154.56 71.1562 142.591C66.9707 137.565 60.8357 128.446 56.2061 120.368C52.3097 113.569 42.7667 94.4058 41.5604 90.9583C40.9581 89.2369 40.9837 89.0964 42.0588 88.2259C43.128 87.3601 43.893 87.316 55.5768 87.4475L67.9613 87.587L69.3657 88.9332C70.3496 89.8764 71.2883 91.7823 72.5004 95.2979C77.0375 108.457 85.4601 121.211 90.6376 122.762C92.9584 123.457 95.1061 122.695 96.0685 120.834C97.3021 118.448 97.8659 113.311 97.5944 106.932C97.2898 99.7729 96.6797 96.9349 95.0732 95.2023C93.7731 93.8002 90.6595 92.0761 89.3737 92.0461C87.9697 92.0134 91.8203 88.9522 94.0868 88.2992C97.0106 87.4569 111.762 87.1165 115.321 87.8093C122.639 89.2339 122.71 89.4005 122.71 105.011C122.71 112.391 122.917 117.926 123.239 119.208C123.842 121.599 125.908 123.653 127.712 123.653C134.105 123.653 143.898 110.387 149.389 94.2903C151.93 86.8391 150.579 87.3512 167.693 87.3512C184.588 87.3512 184.276 87.2702 183.863 91.5447C183.342 96.9434 178.492 106.057 171.292 115.167C160.171 129.24 159.662 130.149 161.148 133.282C161.663 134.366 165.115 137.923 170.226 142.635C184.55 155.841 186.797 159.879 181.333 162.591C179.677 163.413 178.379 163.49 166.32 163.477C149.732 163.46 150.835 163.823 139.447 154.627C133.478 149.807 131.488 148.663 128.886 148.562C125.047 148.411 123.199 150.955 122.868 156.845C122.551 162.488 122.482 162.672 120.467 163.232C118.444 163.794 109.734 163.789 105.393 163.225Z" fill="white"/>
</svg>
